<svg width="298" height="110" viewBox="0 0 298 110" fill="none" xmlns="http://www.w3.org/2000/svg">
<ellipse cx="50" cy="55" rx="50" ry="55" fill="#2F4251"/>
<path d="M74.872 37.152C75.128 38.56 75.224 39.968 75.16 41.376C75.16 42.72 75.128 44.032 75.064 45.312C75.064 46.592 75.096 47.84 75.16 49.056C75.288 50.208 75.608 51.296 76.12 52.32C75.928 52.64 75.544 53.28 74.968 54.24C74.456 55.2 74.072 56.192 73.816 57.216C73.56 58.176 73.592 58.912 73.912 59.424C74.232 59.936 74.36 60.256 74.296 60.384C74.232 60.576 74.168 60.8 74.104 61.056C74.04 61.248 73.944 61.504 73.816 61.824C73.624 62.336 73.304 62.976 72.856 63.744C72.472 64.512 71.928 65.408 71.224 66.432C70.52 67.456 70.04 68.352 69.784 69.12C69.592 69.824 69.464 70.464 69.4 71.04C69.4 71.616 69.4 72.128 69.4 72.576C69.4 73.024 69.272 73.44 69.016 73.824C68.888 73.952 68.6 74.048 68.152 74.112C67.704 74.112 67.16 74.176 66.52 74.304C65.88 74.432 65.176 74.656 64.408 74.976C63.704 75.232 63.032 75.648 62.392 76.224C61.176 76.48 60.216 76.832 59.512 77.28C58.872 77.664 57.88 77.92 56.536 78.048C55.064 78.368 54.072 78.784 53.56 79.296C53.048 79.744 52.696 79.968 52.504 79.968C50.648 79.968 49.208 80.032 48.184 80.16C47.16 80.224 46.488 80.32 46.168 80.448L45.208 80.64C45.016 80.704 44.6 80.736 43.96 80.736L30.52 76.608L23.704 68.928C23.704 66.944 23.672 65.28 23.608 63.936C23.608 62.528 23.576 61.312 23.512 60.288C23.512 59.2 23.512 58.176 23.512 57.216C23.512 56.256 23.544 55.2 23.608 54.048C23.864 53.856 24.28 53.28 24.856 52.32C25.496 51.296 26.136 50.176 26.776 48.96C27.416 47.68 28.024 46.368 28.6 45.024C29.176 43.68 29.624 42.56 29.944 41.664C30.2 40.704 30.424 39.968 30.616 39.456C30.808 38.88 30.968 38.4 31.096 38.016C31.288 37.632 31.448 37.248 31.576 36.864C31.704 36.48 31.832 36 31.96 35.424L34.456 32.928C34.456 32.864 34.808 32.416 35.512 31.584C36.28 30.688 37.144 29.728 38.104 28.704C39.128 27.616 40.184 26.624 41.272 25.728C42.36 24.832 43.256 24.352 43.96 24.288L48.664 23.808L50.584 24C50.84 24.064 51.064 24.096 51.256 24.096C51.512 24.096 51.736 24.096 51.928 24.096H52.6L55.864 27.072C55.928 27.776 56.088 28.352 56.344 28.8C56.664 29.248 57.304 29.6 58.264 29.856C59.288 30.112 59.832 30.24 59.896 30.24C59.96 30.304 59.96 30.368 59.896 30.432C61.112 30.432 62.392 30.112 63.736 29.472C65.08 28.768 66.392 28.416 67.672 28.416C67.992 28.416 68.344 28.576 68.728 28.896C69.112 29.216 69.496 29.6 69.88 30.048L71.032 31.296C71.416 31.744 71.768 32 72.088 32.064C71.96 33.28 71.992 34.176 72.184 34.752C72.44 35.264 72.728 35.648 73.048 35.904C73.432 36.096 73.784 36.256 74.104 36.384C74.488 36.512 74.744 36.768 74.872 37.152ZM58.744 66.336C59.128 66.08 59.448 65.92 59.704 65.856C59.96 65.728 60.184 65.536 60.376 65.28C60.632 65.024 60.856 64.608 61.048 64.032C61.304 63.392 61.592 62.432 61.912 61.152C62.296 59.872 62.616 58.816 62.872 57.984C63.128 57.088 63.32 56.352 63.448 55.776C63.576 55.136 63.672 54.56 63.736 54.048C63.8 53.536 63.832 52.992 63.832 52.416C63.832 51.328 63.896 50.112 64.024 48.768C64.152 47.36 64.024 45.888 63.64 44.352C63.32 43.264 63.096 42.048 62.968 40.704C62.904 39.36 62.808 38.208 62.68 37.248C62.04 36.864 61.656 36.256 61.528 35.424C61.4 34.592 60.984 33.792 60.28 33.024C59.896 32.704 59.48 32.512 59.032 32.448C58.648 32.384 58.264 32.384 57.88 32.448C57.56 32.512 57.24 32.608 56.92 32.736C56.664 32.864 56.472 32.928 56.344 32.928C56.152 32.928 55.768 32.896 55.192 32.832C54.616 32.704 53.944 32.672 53.176 32.736C52.472 32.736 51.736 32.864 50.968 33.12C50.264 33.312 49.688 33.728 49.24 34.368C47.256 36.608 46.104 38.016 45.784 38.592C44.888 40.256 44.088 41.856 43.384 43.392C42.744 44.928 42.168 46.08 41.656 46.848C41.4 47.488 40.856 48.448 40.024 49.728C39.256 51.008 38.872 52.832 38.872 55.2C38.936 55.392 38.84 55.872 38.584 56.64C38.328 57.344 38.072 58.208 37.816 59.232C37.624 60.256 37.464 61.312 37.336 62.4C37.208 63.424 37.304 64.352 37.624 65.184C37.88 65.824 38.424 66.848 39.256 68.256C40.088 69.6 41.528 71.04 43.576 72.576C44.856 73.408 45.72 74.272 46.168 75.168C46.616 76 47 76.416 47.32 76.416C47.64 76.416 48.152 76.416 48.856 76.416C49.56 76.352 50.072 76.48 50.392 76.8L58.744 66.336Z" fill="white"/>
<path d="M127.024 47.44V49.648H125.776L123.952 51.088C122.384 51.312 121.104 51.632 120.112 52.048C119.12 52.432 118.656 52.976 118.72 53.68C118.656 53.84 118.624 54.032 118.624 54.256C118.624 54.448 118.736 54.544 118.96 54.544L118 59.344L117.568 59.872V65.2L117.28 67.888L116.32 68.848L110.848 68.464L109.648 66.832L109.984 65.968L109.792 63.328L110.368 58.48L110.848 54.928C110.848 54.832 110.864 54.752 110.896 54.688C110.896 54.624 110.896 54.544 110.896 54.448C110.928 54.352 110.944 54.272 110.944 54.208C111.104 54.08 111.2 53.792 111.232 53.344C111.296 52.896 111.312 52.608 111.28 52.48C111.28 52.256 111.264 52.048 111.232 51.856C111.232 51.664 111.168 51.248 111.04 50.608C111.008 50.416 110.896 50.192 110.704 49.936C110.544 49.648 110.368 49.392 110.176 49.168L110.8 47.68H111.712L116.656 46.768L117.856 47.344C117.76 47.888 117.744 48.352 117.808 48.736C117.904 49.088 118.032 49.36 118.192 49.552C118.384 49.744 118.592 49.872 118.816 49.936C119.04 49.968 119.232 49.936 119.392 49.84L120.256 49.36C120.416 49.296 120.464 49.12 120.4 48.832C120.368 48.544 120.384 48.176 120.448 47.728L126.4 46.672L127.024 47.44ZM148.188 59.104C147.868 59.328 147.42 59.44 146.844 59.44C146.396 59.44 146.012 59.44 145.692 59.44C145.404 59.44 145.164 59.424 144.972 59.392L143.628 60.256C143.532 60.288 143.356 60.336 143.1 60.4C142.94 60.464 142.732 60.528 142.476 60.592C142.252 60.656 141.98 60.752 141.66 60.88C141.02 61.04 140.428 61.248 139.884 61.504C139.372 61.76 138.892 62.032 138.444 62.32C138.22 62.576 137.948 62.736 137.628 62.8C137.308 62.832 137.164 62.912 137.196 63.04C137.036 63.488 136.908 63.888 136.812 64.24C136.716 64.592 136.668 64.96 136.668 65.344C136.668 65.792 136.668 66.192 136.668 66.544C136.668 66.896 136.636 67.168 136.572 67.36L142.044 65.296C142.396 65.36 142.668 65.392 142.86 65.392C143.052 65.392 143.228 65.392 143.388 65.392C143.548 65.424 143.724 65.392 143.916 65.296C144.108 65.168 144.38 65.024 144.732 64.864L145.836 64.912L148.86 65.824L149.34 66.496C149.404 66.784 149.532 67.2 149.724 67.744C149.948 68.256 150.108 68.768 150.204 69.28C150.268 69.536 150.332 69.824 150.396 70.144C150.492 70.496 150.604 70.896 150.732 71.344C150.956 72.24 151.148 72.736 151.308 72.832L150.876 74.08L151.308 75.28L151.068 76.192L148.476 78.16C148.348 78.128 148.236 78.096 148.14 78.064C148.044 78.032 147.948 78 147.852 77.968C147.692 77.904 147.532 77.856 147.372 77.824C147.212 77.792 147.084 77.776 146.988 77.776L143.244 79.504C143.116 79.472 142.972 79.44 142.812 79.408C142.684 79.408 142.54 79.376 142.38 79.312C142.092 79.248 141.708 79.168 141.228 79.072C140.78 79.008 140.252 78.912 139.644 78.784C139.036 78.656 138.332 78.528 137.532 78.4C136.764 78.272 136.012 78.16 135.276 78.064C134.572 77.968 133.916 77.904 133.308 77.872C132.732 77.84 132.332 77.84 132.108 77.872L129.948 77.44L129.516 77.056L128.748 73.936L128.988 72.976C129.756 72.592 130.412 72.048 130.956 71.344C131.5 70.672 131.804 69.824 131.868 68.8C131.9 68.256 131.916 67.808 131.916 67.456C131.916 67.104 131.916 66.816 131.916 66.592C131.916 66.368 131.9 66.192 131.868 66.064C131.868 65.936 131.868 65.792 131.868 65.632L132.252 63.472L132.972 62.848L133.212 60.4C133.116 60.272 132.972 60.08 132.78 59.824C132.62 59.536 132.428 59.232 132.204 58.912C131.98 58.592 131.756 58.288 131.532 58C131.34 57.68 131.164 57.408 131.004 57.184L131.148 54.688L133.356 50.128L134.604 48.304L139.308 46.144L144.444 48.208L145.644 47.632C145.74 47.632 145.836 47.616 145.932 47.584C146.028 47.552 146.156 47.536 146.316 47.536C146.476 47.504 146.684 47.456 146.94 47.392C147.42 47.328 147.836 47.152 148.188 46.864C148.54 46.576 148.876 46.192 149.196 45.712C149.452 46.032 149.692 46.32 149.916 46.576C150.14 46.832 150.348 47.072 150.54 47.296C150.668 47.424 150.78 47.552 150.876 47.68C150.972 47.776 151.068 47.872 151.164 47.968V50.464L150.684 50.944L147.324 51.664L147.756 53.2L147.9 55.408L148.716 57.52L148.188 59.104ZM136.908 58.768L141.708 57.616C141.932 57.392 142.092 57.056 142.188 56.608C142.316 56.128 142.156 55.664 141.708 55.216L140.46 53.008L139.02 50.128H137.292L137.196 51.856C136.364 51.696 135.82 52.08 135.564 53.008C135.404 53.488 135.276 53.888 135.18 54.208C135.084 54.496 135.02 54.752 134.988 54.976L136.908 58.768ZM135.9 75.184L140.748 75.856C142.54 76.016 143.708 76.016 144.252 75.856C144.284 75.696 144.3 75.52 144.3 75.328C144.332 75.168 144.332 75.008 144.3 74.848C144.3 74.528 144.156 74.144 143.868 73.696C143.58 73.28 143.436 72.864 143.436 72.448C143.436 72.288 143.484 72.192 143.58 72.16C143.676 72.16 143.692 72.08 143.628 71.92C143.596 71.792 143.564 71.568 143.532 71.248C143.532 70.928 143.516 70.592 143.484 70.24C143.452 69.888 143.404 69.552 143.34 69.232C143.308 68.912 143.244 68.704 143.148 68.608C142.956 68.672 142.636 68.784 142.188 68.944C141.772 69.104 141.308 69.264 140.796 69.424C140.316 69.584 139.852 69.744 139.404 69.904C138.956 70.032 138.636 70.112 138.444 70.144C138.156 70.72 137.772 71.072 137.292 71.2C136.844 71.36 136.348 71.568 135.804 71.824C135.9 72.08 135.82 72.336 135.564 72.592C135.34 72.752 134.748 73.04 133.788 73.456C132.796 73.904 132.236 74.336 132.108 74.752L135.9 75.184ZM180.538 66.304L173.818 67.12L172.426 64.864C172.426 64.448 172.106 64.464 171.466 64.912C171.306 65.008 171.146 65.168 170.986 65.392C170.826 65.616 170.666 65.84 170.506 66.064C170.41 66.192 170.314 66.32 170.218 66.448C170.122 66.576 170.026 66.72 169.93 66.88C168.938 67.616 167.914 68.096 166.858 68.32C165.834 68.544 164.954 68.4 164.218 67.888C163.674 67.824 163.306 67.696 163.114 67.504C163.018 67.44 162.89 67.328 162.73 67.168L159.658 66.976L158.362 66.352L157.162 63.328L157.402 62.32L156.346 58.096L158.362 54.736L159.994 53.248C160.602 52.928 161.306 52.672 162.106 52.48C162.906 52.288 163.706 52.16 164.506 52.096C165.306 52 166.074 51.984 166.81 52.048C167.546 52.08 168.154 52.176 168.634 52.336C168.634 52.848 168.794 53.184 169.114 53.344C169.434 53.504 170.058 53.68 170.986 53.872C171.306 53.328 171.466 52.672 171.466 51.904C171.466 51.104 171.322 50.272 171.034 49.408L170.266 46.96C170.01 46.864 169.61 46.704 169.066 46.48C168.554 46.224 168.122 46.016 167.77 45.856L165.706 46.192L163.594 46.624L163.114 45.856L163.642 44.608L163.978 43.84L164.65 43.696L166.858 43.312L168.826 43.984L170.986 43.648L175.162 44.896L176.938 47.584L177.562 55.216L177.418 57.616L178.474 63.232L179.098 63.52H180.586L181.21 65.2L180.538 66.304ZM162.922 58.48C162.762 59.312 162.762 60.016 162.922 60.592C163.114 61.168 163.418 61.648 163.834 62.032L164.554 63.52C165.13 63.712 165.674 63.856 166.186 63.952C166.698 64.048 167.226 64.064 167.77 64C168.346 63.904 168.938 63.728 169.546 63.472C170.186 63.184 170.922 62.768 171.754 62.224L171.85 59.776L170.986 55.504C170.538 55.344 170.138 55.264 169.786 55.264C169.466 55.264 169.146 55.296 168.826 55.36C168.442 55.456 167.994 55.536 167.482 55.6C166.97 55.664 166.442 55.744 165.898 55.84C165.386 55.904 164.906 56 164.458 56.128C164.042 56.224 163.738 56.368 163.546 56.56L162.922 58.48ZM190.358 68.992C190.262 68.992 190.054 69.008 189.734 69.04C189.446 69.04 189.126 69.056 188.774 69.088C188.422 69.088 188.086 69.104 187.766 69.136C187.446 69.136 187.222 69.136 187.094 69.136L186.038 69.232L185.222 68.656C185.19 68.176 185.222 67.616 185.318 66.976C185.446 66.336 185.51 65.84 185.51 65.488C185.894 65.488 185.974 65.104 185.75 64.336C185.494 63.568 185.398 62.96 185.462 62.512C185.494 62 185.574 61.488 185.702 60.976C185.83 60.432 185.846 60.08 185.75 59.92C185.686 59.728 185.606 59.52 185.51 59.296C185.414 59.04 185.334 58.752 185.27 58.432L185.846 55.312C185.846 53.584 185.862 52.256 185.894 51.328C185.958 50.4 186.006 49.712 186.038 49.264C186.102 48.816 186.166 48.544 186.23 48.448C186.326 48.32 186.39 48.208 186.422 48.112C186.486 48.016 186.518 47.856 186.518 47.632C186.55 47.408 186.55 46.96 186.518 46.288L187.526 45.76C188.07 45.792 188.726 45.888 189.494 46.048C190.294 46.176 191.062 46.32 191.798 46.48C192.182 46.544 192.518 46.608 192.806 46.672C193.094 46.704 193.35 46.752 193.574 46.816L194.246 47.728C193.638 48.144 193.238 48.416 193.046 48.544C192.854 48.672 192.838 48.944 192.998 49.36C193.574 49.872 194.07 50.032 194.486 49.84C194.934 49.648 195.238 49.344 195.398 48.928L198.518 48.16H200.342L201.158 48.448C201.926 48.704 202.694 48.976 203.462 49.264C204.262 49.552 204.918 49.776 205.43 49.936L206.294 52.048L206.246 52.624C206.31 53.552 206.358 54.448 206.39 55.312C206.454 56.144 206.454 57.168 206.39 58.384C206.358 59.152 206.326 59.936 206.294 60.736C206.262 61.504 206.23 62.24 206.198 62.944C206.198 63.648 206.198 64.272 206.198 64.816C206.198 65.328 206.198 65.712 206.198 65.968C206.198 66 206.23 66.128 206.294 66.352C206.39 66.576 206.518 66.816 206.678 67.072L206.342 67.6L205.43 68.032C204.982 68.064 204.406 68.144 203.702 68.272C203.03 68.4 202.47 68.464 202.022 68.464C201.83 68.464 201.67 68.4 201.542 68.272C201.414 68.112 201.126 68.048 200.678 68.08L200.006 67.504C200.07 67.088 200.086 66.752 200.054 66.496C200.022 66.208 199.974 65.968 199.91 65.776C199.846 65.552 199.782 65.36 199.718 65.2C199.654 65.04 199.622 64.88 199.622 64.72C199.654 64.24 199.702 63.712 199.766 63.136C199.83 62.688 199.894 62.176 199.958 61.6C200.054 60.992 200.166 60.4 200.294 59.824C200.358 59.472 200.39 59.024 200.39 58.48C200.39 57.904 200.39 57.344 200.39 56.8C200.39 56.224 200.39 55.68 200.39 55.168C200.39 54.656 200.406 54.272 200.438 54.016L199.046 51.568C198.918 51.536 198.79 51.504 198.662 51.472C198.534 51.44 198.39 51.392 198.23 51.328C197.974 51.264 197.718 51.28 197.462 51.376C197.238 51.472 197.014 51.584 196.79 51.712C196.566 51.84 196.358 51.968 196.166 52.096C195.974 52.224 195.798 52.288 195.638 52.288C195.638 52.384 195.462 52.304 195.11 52.048C194.79 51.76 194.518 51.488 194.294 51.232C193.75 50.784 193.35 50.704 193.094 50.992C192.87 51.248 192.678 51.6 192.518 52.048C192.55 52.4 192.598 52.64 192.662 52.768C192.758 52.896 192.854 52.992 192.95 53.056C193.078 53.088 193.19 53.088 193.286 53.056C193.126 53.184 192.998 53.424 192.902 53.776C192.806 54.096 192.726 54.464 192.662 54.88C192.63 55.264 192.614 55.68 192.614 56.128C192.646 56.544 192.694 56.928 192.758 57.28C192.822 57.664 192.774 58.336 192.614 59.296C192.486 60.256 192.454 61.36 192.518 62.608C192.518 63.088 192.502 63.6 192.47 64.144C192.438 64.656 192.406 65.168 192.374 65.68C192.342 66.16 192.31 66.608 192.278 67.024C192.246 67.408 192.23 67.712 192.23 67.936V68.08C191.622 68.592 190.998 68.896 190.358 68.992ZM215.564 38.992C215.628 38.736 215.66 38.496 215.66 38.272C215.692 38.016 215.724 37.76 215.756 37.504C215.756 37.28 215.756 37.088 215.756 36.928C215.788 36.768 215.804 36.624 215.804 36.496L216.044 35.968C216.14 35.936 216.268 35.92 216.428 35.92C216.588 35.92 216.78 35.904 217.004 35.872C217.676 35.84 218.108 35.76 218.3 35.632C218.3 35.6 218.38 35.536 218.54 35.44C218.636 35.344 218.716 35.28 218.78 35.248C218.812 35.248 218.924 35.264 219.116 35.296C219.308 35.328 219.564 35.392 219.884 35.488C220.428 35.616 220.812 35.68 221.036 35.68C221.324 35.68 221.484 35.664 221.516 35.632C221.548 35.6 221.644 35.6 221.804 35.632L222.236 36.448L222.668 38.896L221.66 40.576C221.628 40.608 221.596 40.64 221.564 40.672C221.564 40.704 221.532 40.736 221.468 40.768C221.308 40.864 221.116 41.008 220.892 41.2L220.748 41.344L219.308 41.488C219.116 41.424 218.892 41.36 218.636 41.296C218.38 41.2 218.076 41.088 217.724 40.96C217.372 40.832 217.068 40.72 216.812 40.624C216.556 40.496 216.332 40.4 216.14 40.336L215.9 40.096L215.564 38.992ZM221.516 47.248L221.324 48.976L221.516 49.696L221.228 50.464L221.372 51.568L221.132 52.48L221.276 52.768L221.084 54.928L220.892 59.488C220.892 59.712 220.86 60 220.796 60.352C220.732 60.672 220.684 61.024 220.652 61.408C220.62 61.76 220.62 62.128 220.652 62.512C220.684 62.864 220.78 63.168 220.94 63.424C220.908 63.904 220.86 64.464 220.796 65.104C220.732 65.744 220.62 66.48 220.46 67.312C220.204 67.664 219.932 67.984 219.644 68.272C219.388 68.528 218.892 68.672 218.156 68.704C217.74 68.736 217.324 68.768 216.908 68.8C216.524 68.832 216.156 68.88 215.804 68.944C215.612 68.976 215.42 69.008 215.228 69.04C215.036 69.072 214.828 69.12 214.604 69.184L213.404 67.648C213.436 67.488 213.484 67.056 213.548 66.352C213.644 65.616 213.724 64.752 213.788 63.76C213.852 62.768 213.884 61.712 213.884 60.592C213.916 59.472 213.884 58.432 213.788 57.472L214.076 56.56L214.508 54.448L214.652 52.768L214.94 52.192L214.988 51.76L215.276 50.464L215.516 47.824L219.836 46.144L221.516 47.248ZM228.551 48.544H228.407C228.279 48.544 228.215 48.448 228.215 48.256L228.551 48.544ZM227.639 65.824C227.703 65.664 227.831 65.456 228.023 65.2L228.455 64.624C228.839 64.144 229.143 63.744 229.367 63.424C229.591 63.104 229.767 62.864 229.895 62.704C229.895 62.64 229.911 62.56 229.943 62.464C229.975 62.368 229.991 62.208 229.991 61.984L234.023 55.168C234.439 55.168 234.647 55.088 234.647 54.928C234.679 54.736 234.759 54.608 234.887 54.544C234.983 54.448 235.079 54.288 235.175 54.064C235.303 53.808 235.431 53.536 235.559 53.248C235.687 52.96 235.847 52.672 236.039 52.384C236.231 52.064 236.471 51.792 236.759 51.568C237.943 50.64 238.599 50.064 238.727 49.84C238.759 49.712 238.631 49.488 238.343 49.168L237.863 48.784C237.415 48.816 237.047 48.928 236.759 49.12C236.503 49.312 236.167 49.408 235.751 49.408C235.303 49.184 234.839 49.04 234.359 48.976C233.911 48.912 233.447 48.88 232.967 48.88C232.487 48.88 232.007 48.896 231.527 48.928C231.047 48.928 230.583 48.896 230.135 48.832C229.751 48.768 229.415 48.72 229.127 48.688C228.871 48.624 228.679 48.576 228.551 48.544L228.215 48.256V47.728C228.215 47.6 228.215 47.392 228.215 47.104C228.215 46.816 228.183 46.624 228.119 46.528L228.791 45.616C229.367 45.584 229.991 45.584 230.663 45.616C231.367 45.616 232.135 45.648 232.967 45.712C233.543 45.744 233.975 45.744 234.263 45.712C234.583 45.68 234.823 45.632 234.983 45.568C235.175 45.504 235.335 45.44 235.463 45.376C235.591 45.312 235.783 45.28 236.039 45.28C235.975 45.472 236.055 45.632 236.279 45.76C236.535 45.888 236.839 45.984 237.191 46.048C237.543 46.112 237.911 46.144 238.295 46.144C238.711 46.112 239.063 46.048 239.351 45.952C240.407 45.568 241.191 45.408 241.703 45.472C241.927 45.568 242.215 45.648 242.567 45.712C242.951 45.776 243.351 45.84 243.767 45.904C244.215 45.936 244.647 45.984 245.063 46.048C245.479 46.112 245.863 46.208 246.215 46.336V47.2C246.343 47.296 246.455 47.376 246.551 47.44C246.679 47.504 246.855 47.632 247.079 47.824C246.951 48.048 246.839 48.288 246.743 48.544C246.647 48.8 246.567 49.04 246.503 49.264C246.439 49.424 246.391 49.568 246.359 49.696C246.359 49.824 246.343 49.952 246.311 50.08L244.295 53.248L242.183 56.8C242.119 56.864 242.039 57.024 241.943 57.28C241.879 57.536 241.735 57.728 241.511 57.856C241.447 57.888 241.351 57.968 241.223 58.096C241.095 58.224 240.951 58.368 240.791 58.528C240.631 58.656 240.471 58.784 240.311 58.912C240.183 59.008 240.087 59.056 240.023 59.056L239.879 59.104C239.655 59.52 239.415 59.92 239.159 60.304C238.903 60.656 238.535 61.136 238.055 61.744C237.575 62 237.079 62.16 236.567 62.224C236.055 62.256 235.783 62.272 235.751 62.272C235.335 62.336 235.015 62.48 234.791 62.704C234.599 62.928 234.487 63.168 234.455 63.424C234.423 63.648 234.455 63.856 234.551 64.048C234.679 64.208 234.855 64.256 235.079 64.192C235.463 64.128 235.911 64.08 236.423 64.048C236.935 64.016 237.559 63.936 238.295 63.808C238.583 63.744 238.839 63.712 239.063 63.712C239.287 63.68 239.447 63.68 239.543 63.712C239.671 63.744 239.879 63.776 240.167 63.808C240.487 63.808 240.871 63.792 241.319 63.76C242.439 63.696 243.031 63.696 243.095 63.76C243.127 63.792 243.175 63.84 243.239 63.904C243.335 63.936 243.415 64 243.479 64.096C243.703 64.16 244.071 64.16 244.583 64.096C245.127 64 245.783 63.888 246.551 63.76C246.903 63.696 247.207 63.648 247.463 63.616C247.719 63.552 247.943 63.488 248.135 63.424L248.999 64.384L249.095 65.2L248.231 67.264C247.623 67.392 247.047 67.536 246.503 67.696C245.959 67.856 245.495 67.84 245.111 67.648C244.279 67.52 243.703 67.472 243.383 67.504C243.191 67.536 242.919 67.568 242.567 67.6C242.247 67.6 241.831 67.584 241.319 67.552C240.135 67.68 238.807 67.68 237.335 67.552C236.599 67.488 235.703 67.552 234.647 67.744C233.591 67.904 232.631 68.208 231.767 68.656L231.335 68.512C230.951 68.448 230.663 68.48 230.471 68.608C230.439 68.64 230.407 68.656 230.375 68.656C230.343 68.656 230.311 68.672 230.279 68.704L230.039 68.608C229.655 68.384 229.447 68.272 229.415 68.272C229.383 68.24 229.383 68.208 229.415 68.176H228.215L227.639 65.824ZM273.262 57.52C272.558 57.424 271.934 57.552 271.39 57.904C271.198 58 271.006 58.096 270.814 58.192C270.622 58.256 270.43 58.32 270.238 58.384C270.142 58.416 270.046 58.448 269.95 58.48C269.854 58.512 269.774 58.544 269.71 58.576L263.038 60.592C261.182 60.176 260.526 60.48 261.07 61.504C261.166 61.728 261.294 62.064 261.454 62.512C261.614 62.96 261.742 63.28 261.838 63.472C262.254 63.632 262.686 63.888 263.134 64.24C263.582 64.56 263.998 64.752 264.382 64.816L265.246 64.72C265.47 64.72 265.774 64.704 266.158 64.672C266.574 64.64 266.974 64.592 267.358 64.528C267.774 64.432 268.142 64.32 268.462 64.192C268.814 64.064 269.054 63.904 269.182 63.712C269.278 63.552 269.422 63.44 269.614 63.376C269.806 63.28 269.998 63.2 270.19 63.136C270.318 63.104 270.43 63.088 270.526 63.088C270.654 63.056 270.798 63.024 270.958 62.992L271.486 64.864L270.91 65.968C270.878 66.032 270.766 66.112 270.574 66.208C270.414 66.272 270.222 66.368 269.998 66.496C269.774 66.624 269.55 66.752 269.326 66.88C269.134 66.976 268.99 67.072 268.894 67.168C268.83 67.232 268.654 67.264 268.366 67.264C268.11 67.264 267.806 67.264 267.454 67.264C267.134 67.264 266.798 67.28 266.446 67.312C266.094 67.344 265.822 67.408 265.63 67.504C265.182 67.728 264.83 67.872 264.574 67.936C264.35 68 264.158 68.048 263.998 68.08C263.838 68.144 263.726 68.128 263.662 68.032C263.598 68 263.486 67.984 263.326 67.984C263.23 67.984 263.102 67.984 262.942 67.984C262.782 67.984 262.622 67.968 262.462 67.936C262.046 67.904 261.71 67.888 261.454 67.888C261.198 67.856 261.038 67.84 260.974 67.84L256.366 65.584C256.27 64.624 255.822 64.144 255.022 64.144C254.862 64.144 254.67 64.016 254.446 63.76C254.222 63.472 254.03 63.168 253.87 62.848C253.742 62.688 253.63 62.512 253.534 62.32C253.438 62.096 253.342 61.856 253.246 61.6L252.814 56.128L253.246 52.912C253.278 52.784 253.374 52.624 253.534 52.432C253.726 52.112 253.966 51.632 254.254 50.992C254.382 50.704 254.638 50.432 255.022 50.176C255.406 49.92 255.806 49.696 256.222 49.504C256.67 49.28 257.086 49.088 257.47 48.928C257.886 48.736 258.19 48.576 258.382 48.448C258.766 48.512 259.326 48.096 260.062 47.2C260.254 46.976 260.494 46.8 260.782 46.672C261.07 46.512 261.358 46.384 261.646 46.288C261.806 46.224 261.982 46.176 262.174 46.144C262.366 46.112 262.542 46.08 262.702 46.048L268.318 46.768C268.638 46.832 268.974 46.928 269.326 47.056C269.582 47.184 269.838 47.344 270.094 47.536C270.35 47.728 270.558 47.952 270.718 48.208C270.942 48.752 271.262 49.2 271.678 49.552C272.094 49.872 272.43 50.096 272.686 50.224L274.462 53.392L274.078 56.512L273.262 57.52ZM266.158 55.888L266.542 55.6C266.638 55.536 266.734 55.472 266.83 55.408C266.926 55.312 267.006 55.248 267.07 55.216C267.294 55.152 267.55 55.024 267.838 54.832C268.126 54.64 268.238 54.4 268.174 54.112C268.174 53.568 267.886 52.96 267.31 52.288C266.734 51.616 265.982 51.136 265.054 50.848C264.606 50.688 264.174 50.608 263.758 50.608C263.342 50.608 262.942 50.64 262.558 50.704C262.206 50.736 261.87 50.784 261.55 50.848C261.262 50.912 261.022 50.944 260.83 50.944C260.094 50.784 259.678 51.12 259.582 51.952C259.102 52.688 258.862 53.504 258.862 54.4C258.894 55.264 258.99 56.096 259.15 56.896C259.15 57.344 259.23 57.712 259.39 58C259.582 58.288 259.806 58.464 260.062 58.528C260.318 58.592 260.574 58.544 260.83 58.384C261.118 58.192 261.358 57.856 261.55 57.376L266.158 55.888ZM296.102 47.44V49.648H294.854L293.03 51.088C291.462 51.312 290.182 51.632 289.19 52.048C288.198 52.432 287.734 52.976 287.798 53.68C287.734 53.84 287.702 54.032 287.702 54.256C287.702 54.448 287.814 54.544 288.038 54.544L287.078 59.344L286.646 59.872V65.2L286.358 67.888L285.398 68.848L279.926 68.464L278.726 66.832L279.062 65.968L278.87 63.328L279.446 58.48L279.926 54.928C279.926 54.832 279.942 54.752 279.974 54.688C279.974 54.624 279.974 54.544 279.974 54.448C280.006 54.352 280.022 54.272 280.022 54.208C280.182 54.08 280.278 53.792 280.31 53.344C280.374 52.896 280.39 52.608 280.358 52.48C280.358 52.256 280.342 52.048 280.31 51.856C280.31 51.664 280.246 51.248 280.118 50.608C280.086 50.416 279.974 50.192 279.782 49.936C279.622 49.648 279.446 49.392 279.254 49.168L279.878 47.68H280.79L285.734 46.768L286.934 47.344C286.838 47.888 286.822 48.352 286.886 48.736C286.982 49.088 287.11 49.36 287.27 49.552C287.462 49.744 287.67 49.872 287.894 49.936C288.118 49.968 288.31 49.936 288.47 49.84L289.334 49.36C289.494 49.296 289.542 49.12 289.478 48.832C289.446 48.544 289.462 48.176 289.526 47.728L295.478 46.672L296.102 47.44Z" fill="black"/>
</svg>
